# xmcd
#
# Track frame offsets:
#	150
#	13555
#	28759
#	41850
#	57161
#	71482
#	83775
#	98577
#	109194
#	123554
#	138164
#	151534
#	162548
#
# Disc length: 2436 seconds
#
# Revision: 0
# Processed by: cddbd v1.5.2PL0 Copyright (c) Steve Scherf et al.
# Submitted via: EasyCDDAExtractor 11.5.3.1
#
DISCID=a209820d
DTITLE=The Holstein United Bluegrass Boys - Cattle Tracks
DYEAR=1900
DGENRE=Bluegrass
TTITLE0=Mountain Song
TTITLE1=The Brightest Morning
TTITLE2=Empty Roads
TTITLE3=Next Time
TTITLE4=The Cattle Track
TTITLE5=The Tree
TTITLE6=The Bookstore Man
TTITLE7=Twelve Noon Tune
TTITLE8=Home Is Where My Heart Is
TTITLE9=Last Goodbye
TTITLE10=Leaving For That Good Old Dale
TTITLE11=Bluegrass Train
TTITLE12=Sunday Morning Is Here
EXTD=
EXTT0=
EXTT1=
EXTT2=
EXTT3=
EXTT4=
EXTT5=
EXTT6=
EXTT7=
EXTT8=
EXTT9=
EXTT10=
EXTT11=
EXTT12=
PLAYORDER=
